# xmcd CD database file
#
# Track frame offsets:
#	150
#	38297
#	62875
#	97477
#	101480
#	106592
#	117822
#	135662
#	149392
#	171665
#	178570
#	207112
#	246125
#	270687
#	287897
#	307722
#	320712
#
# Disc length: 4514 seconds
#
# Revision: 0
# Processed by: cddbd v1.5.2PL0 Copyright (c) Steve Scherf et al.
# Submitted via: CDex 1.51
#
DISCID=f711a011
DTITLE=Don Rader and Roger Frampton - Of the Beaten Track
DYEAR=1900
DGENRE=Jazz
TTITLE0=Off the Beaten Track
TTITLE1=There is no Greater Love
TTITLE2=Ashyia
TTITLE3=Caribean Trilogy - Call
TTITLE4=Caribean Trilogy - Response
TTITLE5=Caribean Trilogy - Carnivale
TTITLE6=The meaning of the Blues
TTITLE7=The DreamTime
TTITLE8=Upper Manhattan Medical Group
TTITLE9=Mixed Metaphor
TTITLE10=CTA
TTITLE11=Shades of Sherylene
TTITLE12=If I Should Lose You
TTITLE13=Lament
TTITLE14=Quicksilver
TTITLE15=Highjinks
TTITLE16=Two of One and Another Kind
EXTD=
EXTT0=
EXTT1=
EXTT2=
EXTT3=
EXTT4=
EXTT5=
EXTT6=
EXTT7=
EXTT8=
EXTT9=
EXTT10=
EXTT11=
EXTT12=
EXTT13=
EXTT14=
EXTT15=
EXTT16=
PLAYORDER=
